. 
 
http://www.torrenting.com          :     Once & For all ;)


               www . Torrenting . Com 

(((((((((((((= Enjoy No RAR releases =))))))))))))))))))))


...................................NFO:....................................

.[IMG]http://i.imgur.com/2mcr9.png[/IMG]

 
TITLE: 

The Woman In Black DVDSCR CROPPED XViD - INSPiRAL

IMDB: 
 
http://www.imdb.com/title/tt1596365/


SOURCES:

VIDEO - TONTY THANKS
AUDIO - TONTY THANKS
SUBS  - None Add

STATS:

Video
ID                               : 0
Format                           : MPEG-4 Visual
Format profile                   : Advanced Simple@L5
Format settings, BVOP            : 2
Format settings, QPel            : No
Format settings, GMC             : No warppoints
Format settings, Matrix          : Default (MPEG)
Muxing mode                      : Packed bitstream
Codec ID                         : XVID
Codec ID/Hint                    : XviD
Duration                         : 1h 28mn
Bit rate                         : 1 229 Kbps
Width                            : 720 pixels
Height                           : 288 pixels
Display aspect ratio             : 2.500
Frame rate                       : 25.000 fps
Color space                      : YUV
Chroma subsampling               : 4:2:0
Bit depth                        : 8 bits
Scan type                        : Progressive
Compression mode                 : Lossy
Bits/(Pixel*Frame)               : 0.237
Stream size                      : 776 MiB (90%)
Writing library                  : XviD 64

Audio
ID                               : 1
Format                           : MPEG Audio
Format version                   : Version 1
Format profile                   : Layer 3
Codec ID                         : 55
Codec ID/Hint                    : MP3
Duration                         : 1h 28mn
Bit rate mode                    : Constant
Bit rate                         : 128 Kbps
Channel(s)                       : 2 channels
Sampling rate                    : 48.0 KHz
Compression mode                 : Lossy
Stream size                      : 80.8 MiB (9%)
Alignment                        : Split accross interleaves
Interleave, duration             : 40 ms (1.00 video frame)
Interleave, preload duration     : 500 ms


NOTES:

sOURCE:
Well the video was nice,but looked washed out,had whacked AR and as property of text across the bottom throughout.
The audio was nice but too me was too over powering IMHO.

Workdone:
Opted to crop the text,changed the brightness,contrast and chroma levels....also used a HQ smoother and finally added
some sharpness back to it,oh and fixed the AR issue.
Audio i just lowerd the DBs so it wasn't too powerful.


SCREENS:

[IMG]http://i.imgur.com/YIzZ5.png[/IMG]
[IMG]http://i.imgur.com/cb2XI.png[/IMG]
[IMG]http://i.imgur.com/pKBHi.png[/IMG]
[IMG]http://i.imgur.com/QANRX.png[/IMG]
[IMG]http://i.imgur.com/merfz.png[/IMG]


GREETZ: 

Past,Present and Future

[IMG]http://i.imgur.com/2mcr9.png[/IMG]